<svg width="259" height="43" viewBox="0 0 259 43" fill="none" xmlns="http://www.w3.org/2000/svg">
<path d="M249.599 32.5219C247.682 32.5219 245.975 32.1936 244.478 31.537C242.981 30.8804 241.799 29.9875 240.933 28.8582C240.066 27.7027 239.58 26.4158 239.475 24.9976H246.133C246.211 25.7592 246.566 26.3764 247.196 26.8491C247.827 27.3218 248.601 27.5582 249.521 27.5582C250.361 27.5582 251.004 27.4006 251.451 27.0855C251.924 26.7441 252.16 26.3107 252.16 25.7855C252.16 25.1552 251.832 24.6956 251.175 24.4067C250.519 24.0915 249.455 23.7501 247.984 23.3824C246.408 23.0148 245.095 22.634 244.045 22.24C242.994 21.8198 242.088 21.1764 241.327 20.3097C240.565 19.4168 240.184 18.2218 240.184 16.7248C240.184 15.4642 240.526 14.3218 241.208 13.2976C241.918 12.2471 242.942 11.4198 244.281 10.8157C245.647 10.2117 247.262 9.90967 249.127 9.90967C251.884 9.90967 254.051 10.5925 255.627 11.9582C257.229 13.3238 258.148 15.1359 258.384 17.3945H252.16C252.055 16.6329 251.714 16.0289 251.136 15.5824C250.584 15.1359 249.849 14.9127 248.93 14.9127C248.142 14.9127 247.538 15.0703 247.118 15.3854C246.697 15.6743 246.487 16.0814 246.487 16.6067C246.487 17.237 246.816 17.7097 247.472 18.0248C248.155 18.34 249.205 18.6552 250.624 18.9703C252.252 19.3905 253.578 19.8107 254.602 20.2309C255.627 20.6249 256.52 21.2814 257.281 22.2006C258.069 23.0936 258.476 24.3016 258.502 25.8249C258.502 27.1117 258.135 28.2673 257.399 29.2916C256.69 30.2895 255.653 31.0774 254.287 31.6552C252.948 32.233 251.385 32.5219 249.599 32.5219Z" fill="#811B1B"/>
<path d="M236.904 26.4945V32.2067H233.477C231.035 32.2067 229.131 31.6158 227.765 30.4339C226.399 29.2259 225.716 27.2693 225.716 24.5642V15.8187H223.038V10.2248H225.716V4.86719H232.453V10.2248H236.865V15.8187H232.453V24.643C232.453 25.2996 232.61 25.7723 232.926 26.0612C233.241 26.3501 233.766 26.4945 234.501 26.4945H236.904Z" fill="#811B1B"/>
<path d="M204.652 13.337C205.309 12.3127 206.215 11.4854 207.371 10.8551C208.526 10.2248 209.879 9.90967 211.428 9.90967C213.24 9.90967 214.882 10.3693 216.352 11.2885C217.823 12.2077 218.979 13.5208 219.819 15.2279C220.686 16.9349 221.119 18.9178 221.119 21.1764C221.119 23.435 220.686 25.4309 219.819 27.1643C218.979 28.8713 217.823 30.1976 216.352 31.1431C214.882 32.0623 213.24 32.5219 211.428 32.5219C209.905 32.5219 208.552 32.2067 207.371 31.5764C206.215 30.9461 205.309 30.132 204.652 29.134V42.6855H197.916V10.2248H204.652V13.337ZM214.265 21.1764C214.265 19.4956 213.792 18.1824 212.846 17.237C211.927 16.2652 210.785 15.7794 209.419 15.7794C208.08 15.7794 206.937 16.2652 205.992 17.237C205.073 18.2087 204.613 19.535 204.613 21.2158C204.613 22.8966 205.073 24.2228 205.992 25.1946C206.937 26.1663 208.08 26.6521 209.419 26.6521C210.758 26.6521 211.901 26.1663 212.846 25.1946C213.792 24.1966 214.265 22.8572 214.265 21.1764Z" fill="#811B1B"/>
<path d="M189.686 7.94025C188.504 7.94025 187.532 7.59883 186.771 6.916C186.035 6.20691 185.667 5.34024 185.667 4.31599C185.667 3.26549 186.035 2.39882 186.771 1.71598C187.532 1.00689 188.504 0.652344 189.686 0.652344C190.841 0.652344 191.787 1.00689 192.522 1.71598C193.284 2.39882 193.664 3.26549 193.664 4.31599C193.664 5.34024 193.284 6.20691 192.522 6.916C191.787 7.59883 190.841 7.94025 189.686 7.94025ZM193.034 10.2251V32.207H186.298V10.2251H193.034Z" fill="#811B1B"/>
<path d="M176.184 13.8888C176.972 12.6807 177.957 11.7352 179.139 11.0524C180.321 10.3433 181.634 9.98877 183.078 9.98877V17.1191H181.227C179.546 17.1191 178.285 17.4868 177.445 18.2221C176.604 18.9312 176.184 20.1918 176.184 22.004V32.207H169.448V10.2251H176.184V13.8888Z" fill="#811B1B"/>
<path d="M144.256 21.2158C144.256 18.9309 144.715 16.9349 145.635 15.2279C146.58 13.5208 147.88 12.2077 149.535 11.2885C151.215 10.3693 153.133 9.90967 155.286 9.90967C158.044 9.90967 160.342 10.6319 162.18 12.0763C164.045 13.5208 165.266 15.5562 165.844 18.1824H158.674C158.07 16.5016 156.901 15.6612 155.168 15.6612C153.934 15.6612 152.949 16.1471 152.213 17.1188C151.478 18.0642 151.11 19.4299 151.11 21.2158C151.11 23.0016 151.478 24.3804 152.213 25.3521C152.949 26.2976 153.934 26.7703 155.168 26.7703C156.901 26.7703 158.07 25.9299 158.674 24.2491H165.844C165.266 26.8229 164.045 28.8451 162.18 30.3158C160.316 31.7865 158.018 32.5219 155.286 32.5219C153.133 32.5219 151.215 32.0623 149.535 31.1431C147.88 30.2239 146.58 28.9107 145.635 27.2037C144.715 25.4966 144.256 23.5006 144.256 21.2158Z" fill="#811B1B"/>
<path d="M131.365 32.483C129.343 32.483 127.531 32.1547 125.929 31.4982C124.327 30.8416 123.04 29.8699 122.068 28.583C121.123 27.2961 120.624 25.7466 120.571 23.9345H127.741C127.846 24.9588 128.201 25.7466 128.805 26.2982C129.409 26.8234 130.197 27.086 131.168 27.086C132.166 27.086 132.954 26.8628 133.532 26.4163C134.11 25.9436 134.399 25.3002 134.399 24.486C134.399 23.8032 134.162 23.2386 133.69 22.7921C133.243 22.3456 132.678 21.9779 131.996 21.6891C131.339 21.4002 130.394 21.0719 129.159 20.7042C127.373 20.1527 125.916 19.6012 124.786 19.0497C123.657 18.4981 122.685 17.684 121.871 16.6072C121.057 15.5304 120.65 14.1254 120.65 12.3921C120.65 9.81831 121.582 7.80921 123.447 6.36476C125.312 4.89405 127.741 4.15869 130.735 4.15869C133.781 4.15869 136.237 4.89405 138.102 6.36476C139.966 7.80921 140.964 9.83144 141.096 12.4314H133.808C133.755 11.5385 133.427 10.8426 132.823 10.3436C132.219 9.81831 131.444 9.55568 130.499 9.55568C129.684 9.55568 129.028 9.77891 128.529 10.2254C128.03 10.6456 127.78 11.2628 127.78 12.0769C127.78 12.9698 128.201 13.6658 129.041 14.1648C129.881 14.6638 131.195 15.2022 132.98 15.7799C134.766 16.384 136.211 16.9618 137.314 17.5133C138.443 18.0648 139.415 18.8658 140.229 19.9163C141.043 20.9668 141.45 22.3194 141.45 23.9739C141.45 25.5497 141.043 26.981 140.229 28.2679C139.441 29.5547 138.285 30.579 136.762 31.3406C135.239 32.1022 133.44 32.483 131.365 32.483Z" fill="#811B1B"/>
<path d="M109.457 20.8612C109.457 21.4915 109.418 22.1481 109.339 22.8309H94.0935C94.1985 24.1966 94.6319 25.2471 95.3935 25.9825C96.1814 26.6915 97.14 27.0461 98.2693 27.0461C99.9501 27.0461 101.119 26.337 101.775 24.9188H108.945C108.577 26.3633 107.908 27.6633 106.936 28.8188C105.99 29.9744 104.796 30.8804 103.351 31.537C101.907 32.1936 100.291 32.5219 98.5056 32.5219C96.3521 32.5219 94.4349 32.0623 92.7541 31.1431C91.0733 30.2239 89.7601 28.9107 88.8147 27.2037C87.8692 25.4966 87.3965 23.5006 87.3965 21.2158C87.3965 18.9309 87.8561 16.9349 88.7753 15.2279C89.7207 13.5208 91.0339 12.2077 92.7147 11.2885C94.3955 10.3693 96.3258 9.90967 98.5056 9.90967C100.633 9.90967 102.524 10.3561 104.178 11.2491C105.833 12.142 107.12 13.4157 108.039 15.0703C108.984 16.7248 109.457 18.6552 109.457 20.8612ZM102.563 19.0885C102.563 17.9329 102.169 17.0137 101.381 16.3309C100.593 15.6481 99.6086 15.3067 98.4268 15.3067C97.2975 15.3067 96.3389 15.6349 95.5511 16.2915C94.7894 16.9481 94.3167 17.8804 94.1329 19.0885H102.563Z" fill="#811B1B"/>
<path d="M75.5854 9.98877C78.1591 9.98877 80.2076 10.8292 81.7309 12.51C83.2804 14.1645 84.0551 16.4494 84.0551 19.3646V32.207H77.3581V20.2706C77.3581 18.7999 76.9773 17.6575 76.2157 16.8433C75.4541 16.0292 74.4298 15.6221 73.143 15.6221C71.8561 15.6221 70.8318 16.0292 70.0702 16.8433C69.3086 17.6575 68.9278 18.7999 68.9278 20.2706V32.207H62.1914V10.2251H68.9278V13.1403C69.6106 12.1686 70.5298 11.407 71.6854 10.8554C72.8409 10.2777 74.1409 9.98877 75.5854 9.98877Z" fill="#811B1B"/>
<path d="M53.9611 7.94025C52.7792 7.94025 51.8075 7.59883 51.0459 6.916C50.3105 6.20691 49.9429 5.34024 49.9429 4.31599C49.9429 3.26549 50.3105 2.39882 51.0459 1.71598C51.8075 1.00689 52.7792 0.652344 53.9611 0.652344C55.1166 0.652344 56.0621 1.00689 56.7974 1.71598C57.5591 2.39882 57.9399 3.26549 57.9399 4.31599C57.9399 5.34024 57.5591 6.20691 56.7974 6.916C56.0621 7.59883 55.1166 7.94025 53.9611 7.94025ZM57.3096 10.2251V32.207H50.5732V10.2251H57.3096Z" fill="#811B1B"/>
<path d="M35.4959 32.5219C33.3423 32.5219 31.3989 32.0623 29.6656 31.1431C27.9585 30.2239 26.606 28.9107 25.608 27.2037C24.6363 25.4966 24.1504 23.5006 24.1504 21.2158C24.1504 18.9572 24.6494 16.9743 25.6474 15.2673C26.6453 13.5339 28.011 12.2077 29.7443 11.2885C31.4777 10.3693 33.4211 9.90967 35.5747 9.90967C37.7282 9.90967 39.6717 10.3693 41.405 11.2885C43.1383 12.2077 44.504 13.5339 45.502 15.2673C46.5 16.9743 46.999 18.9572 46.999 21.2158C46.999 23.4744 46.4868 25.4703 45.4626 27.2037C44.4646 28.9107 43.0858 30.2239 41.3262 31.1431C39.5929 32.0623 37.6494 32.5219 35.4959 32.5219ZM35.4959 26.6915C36.7828 26.6915 37.8727 26.2188 38.7656 25.2734C39.6848 24.3279 40.1444 22.9754 40.1444 21.2158C40.1444 19.4562 39.6979 18.1036 38.805 17.1582C37.9383 16.2127 36.8615 15.74 35.5747 15.74C34.2615 15.74 33.1716 16.2127 32.305 17.1582C31.4383 18.0774 31.005 19.4299 31.005 21.2158C31.005 22.9754 31.4252 24.3279 32.2656 25.2734C33.1322 26.2188 34.209 26.6915 35.4959 26.6915Z" fill="#811B1B"/>
<path d="M22.1088 4.55225V9.94923H14.7815V32.2069H8.04507V9.94923H0.717773V4.55225H22.1088Z" fill="#811B1B"/>
<path d="M248.881 31.87C246.964 31.87 245.257 31.5417 243.76 30.8852C242.263 30.2286 241.081 29.3357 240.214 28.2064C239.348 27.0508 238.862 25.7639 238.757 24.3457H245.414C245.493 25.1074 245.848 25.7245 246.478 26.1973C247.108 26.67 247.883 26.9064 248.802 26.9064C249.643 26.9064 250.286 26.7488 250.733 26.4336C251.205 26.0922 251.442 25.6589 251.442 25.1336C251.442 24.5033 251.113 24.0437 250.457 23.7548C249.8 23.4397 248.737 23.0983 247.266 22.7306C245.69 22.3629 244.377 21.9821 243.327 21.5882C242.276 21.168 241.37 20.5245 240.608 19.6579C239.847 18.7649 239.466 17.57 239.466 16.073C239.466 14.8124 239.807 13.67 240.49 12.6457C241.199 11.5952 242.224 10.7679 243.563 10.1639C244.929 9.55983 246.544 9.25781 248.408 9.25781C251.166 9.25781 253.333 9.94065 254.908 11.3063C256.51 12.672 257.43 14.4841 257.666 16.7427H251.442C251.337 15.9811 250.995 15.377 250.417 14.9306C249.866 14.4841 249.131 14.2609 248.211 14.2609C247.424 14.2609 246.819 14.4184 246.399 14.7336C245.979 15.0225 245.769 15.4296 245.769 15.9548C245.769 16.5851 246.097 17.0578 246.754 17.373C247.437 17.6881 248.487 18.0033 249.905 18.3185C251.534 18.7387 252.86 19.1589 253.884 19.5791C254.908 19.973 255.801 20.6296 256.563 21.5488C257.351 22.4417 257.758 23.6498 257.784 25.173C257.784 26.4599 257.416 27.6155 256.681 28.6397C255.972 29.6377 254.935 30.4256 253.569 31.0033C252.23 31.5811 250.667 31.87 248.881 31.87Z" fill="white"/>
<path d="M236.187 25.8427V31.5548H232.759C230.317 31.5548 228.413 30.9639 227.047 29.7821C225.681 28.574 224.999 26.6174 224.999 23.9124V15.1669H222.32V9.57293H224.999V4.21533H231.735V9.57293H236.147V15.1669H231.735V23.9912C231.735 24.6477 231.893 25.1205 232.208 25.4093C232.523 25.6982 233.048 25.8427 233.783 25.8427H236.187Z" fill="white"/>
<path d="M203.934 12.6851C204.591 11.6609 205.497 10.8336 206.652 10.2033C207.808 9.57297 209.16 9.25781 210.71 9.25781C212.522 9.25781 214.163 9.71741 215.634 10.6366C217.105 11.5558 218.26 12.8689 219.101 14.576C219.968 16.2831 220.401 18.2659 220.401 20.5245C220.401 22.7831 219.968 24.7791 219.101 26.5124C218.26 28.2195 217.105 29.5458 215.634 30.4912C214.163 31.4104 212.522 31.87 210.71 31.87C209.187 31.87 207.834 31.5549 206.652 30.9246C205.497 30.2942 204.591 29.4801 203.934 28.4821V42.0337H197.198V9.57297H203.934V12.6851ZM213.546 20.5245C213.546 18.8437 213.074 17.5306 212.128 16.5851C211.209 15.6134 210.066 15.1275 208.701 15.1275C207.361 15.1275 206.219 15.6134 205.274 16.5851C204.354 17.5568 203.895 18.8831 203.895 20.5639C203.895 22.2447 204.354 23.571 205.274 24.5427C206.219 25.5144 207.361 26.0003 208.701 26.0003C210.04 26.0003 211.183 25.5144 212.128 24.5427C213.074 23.5447 213.546 22.2053 213.546 20.5245Z" fill="white"/>
<path d="M188.968 7.2879C187.786 7.2879 186.814 6.94649 186.053 6.26366C185.317 5.55456 184.95 4.6879 184.95 3.66365C184.95 2.61314 185.317 1.74647 186.053 1.06364C186.814 0.354547 187.786 0 188.968 0C190.123 0 191.069 0.354547 191.804 1.06364C192.566 1.74647 192.947 2.61314 192.947 3.66365C192.947 4.6879 192.566 5.55456 191.804 6.26366C191.069 6.94649 190.123 7.2879 188.968 7.2879ZM192.316 9.57276V31.5547H185.58V9.57276H192.316Z" fill="white"/>
<path d="M175.466 13.2364C176.254 12.0284 177.239 11.0829 178.42 10.4001C179.602 9.69097 180.915 9.33643 182.36 9.33643V16.4668H180.508C178.827 16.4668 177.567 16.8344 176.726 17.5698C175.886 18.2789 175.466 19.5395 175.466 21.3516V31.5547H168.729V9.57279H175.466V13.2364Z" fill="white"/>
<path d="M143.538 20.5639C143.538 18.2791 143.998 16.2831 144.917 14.576C145.862 12.8689 147.162 11.5558 148.817 10.6366C150.498 9.71741 152.415 9.25781 154.568 9.25781C157.326 9.25781 159.624 9.98004 161.462 11.4245C163.327 12.8689 164.548 14.9043 165.126 17.5306H157.956C157.352 15.8498 156.184 15.0093 154.45 15.0093C153.216 15.0093 152.231 15.4952 151.496 16.4669C150.76 17.4124 150.393 18.778 150.393 20.5639C150.393 22.3498 150.76 23.7286 151.496 24.7003C152.231 25.6457 153.216 26.1185 154.45 26.1185C156.184 26.1185 157.352 25.2781 157.956 23.5973H165.126C164.548 26.171 163.327 28.1932 161.462 29.6639C159.598 31.1347 157.3 31.87 154.568 31.87C152.415 31.87 150.498 31.4104 148.817 30.4912C147.162 29.572 145.862 28.2589 144.917 26.5518C143.998 24.8447 143.538 22.8488 143.538 20.5639Z" fill="white"/>
<path d="M130.647 31.8302C128.625 31.8302 126.813 31.5019 125.211 30.8453C123.609 30.1888 122.322 29.2171 121.35 27.9302C120.405 26.6433 119.906 25.0938 119.853 23.2817H127.023C127.128 24.3059 127.482 25.0938 128.086 25.6453C128.69 26.1706 129.478 26.4332 130.45 26.4332C131.448 26.4332 132.236 26.21 132.814 25.7635C133.391 25.2908 133.68 24.6473 133.68 23.8332C133.68 23.1504 133.444 22.5857 132.971 22.1393C132.525 21.6928 131.96 21.3251 131.277 21.0362C130.621 20.7473 129.675 20.419 128.441 20.0514C126.655 19.4999 125.197 18.9483 124.068 18.3968C122.939 17.8453 121.967 17.0312 121.153 15.9544C120.339 14.8776 119.932 13.4726 119.932 11.7392C119.932 9.16547 120.864 7.15638 122.729 5.71193C124.593 4.24122 127.023 3.50586 130.017 3.50586C133.063 3.50586 135.519 4.24122 137.383 5.71193C139.248 7.15638 140.246 9.17861 140.377 11.7786H133.089C133.037 10.8857 132.709 10.1897 132.105 9.69073C131.501 9.16547 130.726 8.90285 129.78 8.90285C128.966 8.90285 128.31 9.12608 127.811 9.57255C127.312 9.99275 127.062 10.6099 127.062 11.4241C127.062 12.317 127.482 13.013 128.323 13.512C129.163 14.0109 130.476 14.5493 132.262 15.1271C134.048 15.7312 135.492 16.3089 136.596 16.8605C137.725 17.412 138.697 18.213 139.511 19.2635C140.325 20.314 140.732 21.6665 140.732 23.3211C140.732 24.8968 140.325 26.3282 139.511 27.615C138.723 28.9019 137.567 29.9262 136.044 30.6878C134.521 31.4494 132.722 31.8302 130.647 31.8302Z" fill="white"/>
<path d="M108.739 20.2094C108.739 20.8397 108.7 21.4962 108.621 22.1791H93.3752C93.4803 23.5447 93.9136 24.5952 94.6752 25.3306C95.4631 26.0397 96.4217 26.3942 97.551 26.3942C99.2318 26.3942 100.4 25.6851 101.057 24.267H108.227C107.859 25.7114 107.189 27.0114 106.218 28.167C105.272 29.3225 104.077 30.2286 102.633 30.8852C101.188 31.5417 99.5732 31.87 97.7874 31.87C95.6338 31.87 93.7166 31.4104 92.0358 30.4912C90.355 29.572 89.0419 28.2589 88.0964 26.5518C87.151 24.8447 86.6782 22.8488 86.6782 20.5639C86.6782 18.2791 87.1378 16.2831 88.057 14.576C89.0025 12.8689 90.3156 11.5558 91.9964 10.6366C93.6772 9.71741 95.6075 9.25781 97.7874 9.25781C99.9146 9.25781 101.806 9.70428 103.46 10.5972C105.115 11.4901 106.402 12.7639 107.321 14.4184C108.266 16.073 108.739 18.0033 108.739 20.2094ZM101.845 18.4366C101.845 17.2811 101.451 16.3619 100.663 15.679C99.8752 14.9962 98.8904 14.6548 97.7086 14.6548C96.5793 14.6548 95.6207 14.9831 94.8328 15.6397C94.0712 16.2962 93.5985 17.2285 93.4146 18.4366H101.845Z" fill="white"/>
<path d="M74.8666 9.33643C77.4404 9.33643 79.4889 10.1768 81.0121 11.8576C82.5616 13.5122 83.3364 15.7971 83.3364 18.7122V31.5547H76.6394V19.6183C76.6394 18.1476 76.2586 17.0051 75.4969 16.191C74.7353 15.3768 73.7111 14.9698 72.4242 14.9698C71.1373 14.9698 70.1131 15.3768 69.3515 16.191C68.5899 17.0051 68.209 18.1476 68.209 19.6183V31.5547H61.4727V9.57279H68.209V12.488C68.8919 11.5162 69.8111 10.7546 70.9666 10.2031C72.1222 9.62531 73.4222 9.33643 74.8666 9.33643Z" fill="white"/>
<path d="M53.2428 7.2879C52.061 7.2879 51.0893 6.94649 50.3276 6.26366C49.5923 5.55456 49.2246 4.6879 49.2246 3.66365C49.2246 2.61314 49.5923 1.74647 50.3276 1.06364C51.0893 0.354547 52.061 0 53.2428 0C54.3984 0 55.3438 0.354547 56.0792 1.06364C56.8408 1.74647 57.2216 2.61314 57.2216 3.66365C57.2216 4.6879 56.8408 5.55456 56.0792 6.26366C55.3438 6.94649 54.3984 7.2879 53.2428 7.2879ZM56.5913 9.57276V31.5547H49.8549V9.57276H56.5913Z" fill="white"/>
<path d="M34.7781 31.87C32.6246 31.87 30.6811 31.4104 28.9478 30.4912C27.2407 29.572 25.8882 28.2589 24.8902 26.5518C23.9185 24.8447 23.4326 22.8488 23.4326 20.5639C23.4326 18.3053 23.9316 16.3225 24.9296 14.6154C25.9276 12.8821 27.2932 11.5558 29.0266 10.6366C30.7599 9.71741 32.7034 9.25781 34.8569 9.25781C37.0104 9.25781 38.9539 9.71741 40.6872 10.6366C42.4206 11.5558 43.7862 12.8821 44.7842 14.6154C45.7822 16.3225 46.2812 18.3053 46.2812 20.5639C46.2812 22.8225 45.7691 24.8185 44.7448 26.5518C43.7468 28.2589 42.368 29.572 40.6084 30.4912C38.8751 31.4104 36.9317 31.87 34.7781 31.87ZM34.7781 26.0397C36.065 26.0397 37.1549 25.567 38.0478 24.6215C38.967 23.676 39.4266 22.3235 39.4266 20.5639C39.4266 18.8043 38.9801 17.4518 38.0872 16.5063C37.2205 15.5609 36.1438 15.0881 34.8569 15.0881C33.5438 15.0881 32.4539 15.5609 31.5872 16.5063C30.7205 17.4255 30.2872 18.778 30.2872 20.5639C30.2872 22.3235 30.7074 23.676 31.5478 24.6215C32.4145 25.567 33.4912 26.0397 34.7781 26.0397Z" fill="white"/>
<path d="M21.391 3.90039V9.29738H14.0637V31.555H7.3273V9.29738H0V3.90039H21.391Z" fill="white"/>
</svg>
